{"title":"Stoker 2013 1080p x264 2Audio- alrmothe","uid":8557396,"size":7622029377,"categoryP":"video","categoryS":"hd___movies","magnet":"?xt=urn:btih:d26171740d450eb35ec5c3429a4e43984c731ab3&amp;dn=Stoker+2013+1080p+x264+2Audio-+alrmothe&amp;tr=udp%3A%2F%2Ftracker.openbittorrent.com%3A80&amp;tr=udp%3A%2F%2Fopen.demonii.com%3A1337&amp;tr=udp%3A%2F%2Ftracker.coppersurfer.tk%3A6969&amp;tr=udp%3A%2F%2Fexodus.desync.com%3A6969","seeders":0,"leechers":1,"uploader":".alrmothe","files":20,"time":1370798355,"description":"******************************************************\n\nStoker 2013 1080p x264 2Audio- alrmothe\n\n******************************************************\n\nTitle:Stoker  \nYEAR: 2013\nGENRE :Drama | Mystery | Thriller       \nimdb URL http://www.imdb.com/title/tt1682180/\nOverall bit rate: 10.3 Mbps\nFormat version: Version 4 / Version 2\nFile size:  7.10 GiB\nDuration:  1h 38mn\nSub:Arabic,English,Spanish,French,Portuguese\n\nThe same subtitle format used on BDs/HD-DVDs\n******************************************************\n\nVideo\nFormat: Matroska\nFormat : AVC \nFormat/Info : Advanced Video Codec \nFormat profile : &lt;a class=&quot;__cf_email__&quot; href=&quot;/cdn-cgi/l/email-protection&quot; data-cfemail=&quot;f4bc9d939cb4b8c0dac5&quot;&gt;[email&amp;#160;protected]&lt;/a&gt;&lt;script cf-hash='f9e31' type=&quot;text/javascript&quot;&gt;\n/* &lt;![CDATA[ */!function(){try{var t=&quot;currentScript&quot;in document?document.currentScript:function(){for(var t=document.getElementsByTagName(&quot;script&quot;),e=t.length;e--;)if(t[e].getAttribute(&quot;cf-hash&quot;))return t[e]}();if(t&amp;&amp;t.previousSibling){var e,r,n,i,c=t.previousSibling,a=c.getAttribute(&quot;data-cfemail&quot;);if(a){for(e=&quot;&quot;,r=parseInt(a.substr(0,2),16),n=2;a.length-n;n+=2)i=parseInt(a.substr(n,2),16)^r,e+=String.fromCharCode(i);e=document.createTextNode(e),c.parentNode.replaceChild(e,c)}}}catch(u){}}();/* ]]&gt; */&lt;/script&gt; \nFormat settings, CABAC : Yes \nFormat settings, ReFrames : 4 frames  \nCodec ID : V_MPEG4/ISO/AVC  \nBit rate : 9150 kbps \nWidth : 1920 pixels \nHeight : 800 pixels \nDisplay aspect ratio : 2:40:1 \nFrame rate : 23.976 fps \nColor space : YUV \nChroma subsampling : 4:2:0 \nBit depth : 8 bits \nScan type : Progressive \nBits/(Pixel*Frame) : 0.248 \nStream size: 6.21\n\n\n\nAudio \nFormat: Ac3\nBit rate :640 Kbps\nChannel(s) : 6 channels\nChannel positions:Front: L C R, Side: L R, LFE\nSampling rate: 48.0 KHz\nBit depth: 16 bits\nCompression mode: Lossy\nStream size: 453 MiB\nLanguage : English\n\n\nAudio #2\nFormat : AC3\nBit rate : 448 Kbps\nChannel(s) : 6 channels\nChannel positions : Front: L C R, Side: L R, LFE\nSampling rate : 48.0 KHz\nBit depth : 16 bits\nCompression mode : Lossy\nStream size : 317 MiB \nLanguage : French\n******************************************************\n\n\n\nScreenshots &lt;a href=&quot;\nhttp://img14.imageshack.us/img14/3827/vlcsnap2013060917h10m08.png&quot; rel=&quot;nofollow&quot; target=&quot;_NEW&quot;&gt;\nhttp://img14.imageshack.us/img14/3827/vlcsnap2013060917h10m08.png&lt;/a&gt; &lt;a href=&quot;\nhttp://img35.imageshack.us/img35/1138/vlcsnap2013060917h10m19.png&quot; rel=&quot;nofollow&quot; target=&quot;_NEW&quot;&gt;\nhttp://img35.imageshack.us/img35/1138/vlcsnap2013060917h10m19.png&lt;/a&gt; &lt;a href=&quot;\nhttp://img405.imageshack.us/img405/7880/vlcsnap2013060917h10m49.png&quot; rel=&quot;nofollow&quot; target=&quot;_NEW&quot;&gt;\nhttp://img405.imageshack.us/img405/7880/vlcsnap2013060917h10m49.png&lt;/a&gt; &lt;a href=&quot;\nhttp://img59.imageshack.us/img59/1479/vlcsnap2013060917h11m04.png&quot; rel=&quot;nofollow&quot; target=&quot;_NEW&quot;&gt;\nhttp://img59.imageshack.us/img59/1479/vlcsnap2013060917h11m04.png&lt;/a&gt;\n\n\n\n\n\n\n\n\n\n\n\n\n\n\n\n\n\n.","torrent":{"xt":"urn:btih:d26171740d450eb35ec5c3429a4e43984c731ab3","amp;dn":"Stoker+2013+1080p+x264+2Audio-+alrmothe","amp;tr":["udp%3A%2F%2Ftracker.openbittorrent.com%3A80","udp%3A%2F%2Fopen.demonii.com%3A1337","udp%3A%2F%2Ftracker.coppersurfer.tk%3A6969","udp%3A%2F%2Fexodus.desync.com%3A6969"],"infoHash":"d26171740d450eb35ec5c3429a4e43984c731ab3","infoHashBuffer":{"type":"Buffer","data":[210,97,113,116,13,69,14,179,94,197,195,66,154,78,67,152,76,115,26,179]},"announce":[],"urlList":[]}}